<?xml version="1.0" encoding="utf-8"?>
<!-- Generator: Adobe Illustrator 17.0.0, SVG Export Plug-In . SVG Version: 6.00 Build 0)  -->
<!DOCTYPE svg PUBLIC "-//W3C//DTD SVG 1.1//EN" "http://www.w3.org/Graphics/SVG/1.1/DTD/svg11.dtd">
<svg version="1.1" id="Layer_1" xmlns="http://www.w3.org/2000/svg" xmlns:xlink="http://www.w3.org/1999/xlink" x="0px" y="0px"
	 width="500px" height="500px" viewBox="0 0 500 500" enable-background="new 0 0 500 500" xml:space="preserve">
<path fill="#FFFFFF" d="M183.888,196.821c0,3.695-1.021,7.831-3.057,12.416c-1.784,4.076-3.184,6.621-4.202,7.64
	c-4.076,3.819-13.308,7.514-27.696,11.078c-16.684,4.202-33.046,6.302-49.091,6.302c-14.135,0-25.089-2.291-32.854-6.876
	c-8.279-4.838-12.416-11.714-12.416-20.628c0-7.514,2.675-14.326,8.024-20.44c0.507-0.764,1.145-1.145,1.91-1.145
	c0.507,0,0.764,0.381,0.764,1.145c0,0.512-0.192,1.021-0.573,1.529c-1.911,3.821-2.865,7.64-2.865,11.462
	c0,5.731,3.945,10.443,11.843,14.135c8.148,3.819,19.418,5.729,33.809,5.729c16.17,0,32.216-2.1,48.136-6.302
	c14.388-3.821,21.584-7.067,21.584-9.743c0-2.798-2.74-7.383-8.214-13.752l6.303-12.416c0.764-1.781,1.591-1.843,2.483-0.191
	C181.849,183.897,183.888,190.583,183.888,196.821z"/>
<path fill="#FFFFFF" d="M199.193,200.258c0,1.912-0.162,4.298-0.477,7.164c-0.32,2.864-0.764,5.667-1.338,8.405
	c-0.573,2.74-1.307,5.095-2.196,7.067c-0.892,1.976-1.91,2.962-3.056,2.962c-0.639-0.257-0.955-0.764-0.955-1.529
	c0.125-0.891,0.191-1.845,0.191-2.867c0-1.017,0-2.1,0-3.245c0-3.821-0.287-9.105-0.86-15.854
	c-0.573-6.748-1.242-13.974-2.006-21.681c-0.763-7.702-1.498-15.471-2.196-23.304c-0.701-7.831-1.116-14.802-1.242-20.916
	c0-1.272,1.081-3.755,3.248-7.45c1.91-3.438,3.343-5.76,4.298-6.971c0.955-1.21,1.749-1.814,2.388-1.814
	c0.507,0,0.764,0.831,0.764,2.483c0,1.657-0.066,3.438-0.192,5.348c-0.128,1.912-0.191,4.078-0.191,6.495
	c0,5.095,0.316,12.831,0.955,23.209c0.636,10.381,1.591,23.59,2.865,39.635V200.258z"/>
<path fill="#FFFFFF" d="M225.833,200.544c0,6.24-1.212,12.354-3.63,18.338c-2.42,5.983-5.476,11.333-9.168,16.045
	c-3.695,4.71-7.769,8.5-12.225,11.366c-4.459,2.864-8.725,4.298-12.799,4.298c-1.527,0-3.662-0.321-6.399-0.955
	c-2.74-0.64-5.444-1.5-8.118-2.581c-2.675-1.083-5.03-2.262-7.068-3.533c-2.036-1.274-3.056-2.548-3.056-3.819
	c0-1.021,0.51-1.529,1.527-1.529c0.382,0,0.702,0.062,0.956,0.191c3.82,1.529,7.831,2.293,12.033,2.293
	c3.438,0,7.48-1.243,12.13-3.726c4.646-2.483,9.074-5.509,13.276-9.071c4.202-3.567,7.799-7.259,10.792-11.081
	c2.991-3.819,4.489-7.067,4.489-9.74c0-5.474-4.394-12.924-13.18-22.35l5.73-13.371c0.382-0.888,0.827-1.336,1.337-1.336
	c0.254,0,0.699,0.191,1.338,0.574C221.822,177.813,225.833,187.813,225.833,200.544z"/>
<path fill="#FFFFFF" d="M247.698,225.472c-7.64,0-12.606-4.71-14.899-14.135c-0.128-0.381-0.382-2.355-0.764-5.921
	c-0.382-3.562-0.83-7.99-1.337-13.276c-0.511-5.281-1.083-11.012-1.719-17.19c-0.639-6.176-1.242-12.097-1.814-17.764
	c-0.574-5.664-1.083-10.664-1.529-14.995c-0.447-4.329-0.796-7.321-1.05-8.978c0-0.764,2.417-4.583,7.258-11.459
	c0.764-1.019,1.337-1.529,1.719-1.529c0.382,0,0.698,0.764,0.955,2.291l4.584,68.384c0.254,4.331,0.636,7.802,1.146,10.409
	c0.507,2.612,1.242,4.586,2.196,5.921c0.955,1.338,2.196,2.198,3.725,2.579c1.527,0.383,3.373,0.574,5.539,0.574h2.865v15.09
	H247.698z"/>
<path fill="#FFFFFF" d="M342.631,225.472c-2.292,0-4.555-1.081-6.781-3.248c-2.23-2.164-3.853-4.838-4.87-8.021
	c-3.057,7.133-7.134,10.695-12.226,10.695c-5.605,0-10.06-3.945-13.37-11.843c-5.606,7.897-11.335,11.843-17.191,11.843
	c-2.549,0-4.903-0.826-7.068-2.483c-2.674-1.91-4.584-4.517-5.731-7.831c-5.222,7.259-11.269,10.888-18.146,10.888h-2.674
	c-1.018,0-2.036-0.126-3.056-0.381c-1.018-0.255-1.529-0.636-1.529-1.147V211.72c0-0.383,0.511-0.7,1.529-0.955
	c1.02-0.255,2.038-0.383,3.056-0.383h4.775c5.474,0,9.868-1.338,13.181-4.012c1.781-1.4,3.563-3.819,5.348-7.257
	c1.272-2.674,2.293-4.012,3.057-4.012c1.145,0,1.719,0.893,1.719,2.674c0,0.638-0.066,1.212-0.192,1.719v1.529
	c0,5.224,2.737,7.831,8.214,7.831c4.71,0,8.467-1.207,11.27-3.629c1.781-1.4,3.438-3.629,4.965-6.686
	c1.272-2.293,2.293-3.438,3.057-3.438c0.889,0,1.399,1.212,1.527,3.629c0.125,3.057,0.507,5.286,1.146,6.686
	c1.272,2.421,3.883,3.629,7.832,3.629c3.056,0,5.539-1.207,7.449-3.629c0.764-1.145,1.845-3.372,3.248-6.686
	c0.889-2.417,1.719-3.629,2.483-3.629c1.018,0,1.719,1.338,2.101,4.012c0.382,3.438,0.955,5.857,1.719,7.257
	c1.529,2.674,4.202,4.012,8.022,4.012h2.865v15.09H342.631z"/>
<path fill="#FFFFFF" d="M386.754,225.472c-8.66,0-14.454-3.181-17.382-9.55c-2.167,3.183-4.394,5.571-6.686,7.162
	c-2.292,1.595-5.414,2.388-9.359,2.388h-4.967c-1.018,0-2.036-0.126-3.056-0.381c-1.018-0.255-1.529-0.636-1.529-1.147V211.72
	c0-0.383,0.511-0.7,1.529-0.955c1.02-0.255,2.038-0.383,3.056-0.383h5.731c4.71,0,8.53-1.081,11.461-3.248
	c1.527-1.145,3.119-3.181,4.775-6.112c1.4-2.164,2.293-3.248,2.675-3.248c0.889,0,1.719,1.595,2.482,4.776
	c1.4,5.224,5.602,7.831,12.607,7.831h4.967v15.09H386.754z"/>
<path fill="#FFFFFF" d="M404.327,210.382c4.202,0,8.338-0.507,12.415-1.529c3.564-0.888,5.349-1.91,5.349-3.055
	c0-2.676-2.74-7.193-8.214-13.562l6.495-10.888c1.018-2.164,2.036-2.355,3.056-0.574c3.438,5.605,5.157,12.29,5.157,20.057
	c0,2.802-0.892,6.369-2.674,10.695c-1.529,4.078-2.931,6.752-4.202,8.024c-3.949,3.948-9.807,5.921-17.573,5.921h-11.078
	c-1.018,0-2.036-0.126-3.056-0.381c-1.018-0.255-1.529-0.636-1.529-1.147V211.72c0-0.383,0.511-0.7,1.529-0.955
	c1.02-0.255,2.038-0.383,3.056-0.383H404.327z"/>
<path fill="#FFFFFF" d="M446.96,200.449c0,1.912-0.162,4.298-0.477,7.164c-0.32,2.864-0.764,5.667-1.338,8.405
	c-0.573,2.74-1.307,5.095-2.196,7.067c-0.892,1.976-1.91,2.962-3.056,2.962c-0.639-0.257-0.955-0.764-0.955-1.529
	c0.125-0.891,0.191-1.845,0.191-2.867c0-1.017,0-2.1,0-3.245c0-3.821-0.287-9.105-0.86-15.854
	c-0.573-6.748-1.242-13.974-2.006-21.681c-0.763-7.702-1.497-15.471-2.196-23.304c-0.701-7.831-1.116-14.802-1.242-20.916
	c0-1.272,1.081-3.755,3.248-7.45c1.91-3.438,3.343-5.76,4.298-6.971c0.955-1.21,1.749-1.814,2.388-1.814
	c0.507,0,0.764,0.831,0.764,2.483c0,1.657-0.066,3.438-0.192,5.348c-0.128,1.912-0.191,4.078-0.191,6.495
	c0,5.095,0.316,12.831,0.955,23.209c0.636,10.381,1.591,23.59,2.865,39.635V200.449z"/>
<rect x="391.867" y="158.241" transform="matrix(0.7071 -0.7071 0.7071 0.7071 -0.5589 331.7462)" fill="#FFFFFF" width="16.614" height="16.614"/>
<path fill="#FFFFFF" d="M166.252,337.398c0,18.462-5.634,33.048-16.892,43.751c-11.262,10.89-25.752,16.339-43.474,16.339
	c-13.478,0-24.186-2.865-32.122-8.587c-9.6-6.831-14.4-17.258-14.4-31.288c0-15.135,4.613-28.703,13.846-40.707
	c1.476-2.026,2.77-3.044,3.878-3.044c0.552,0,0.83,0.372,0.83,1.108c0,0.925-0.554,2.309-1.662,4.152
	c-5.17,9.046-7.754,17.817-7.754,26.307c0,9.416,3.6,16.892,10.8,22.428c6.273,4.984,14.767,7.476,25.476,7.476
	c16.428,0,30.087-3.414,40.982-10.244c8.122-5.353,12.184-9.416,12.184-12.184c0-8.488-2.587-18.828-7.754-31.012
	c-2.033-5.167-4.292-10.013-6.784-14.538c-2.492-4.522-5.032-8.815-7.614-12.878l7.2-14.952c0.92-2.03,1.66-3.048,2.214-3.048
	c0.554,0,1.384,0.742,2.492,2.216C160.064,294.941,166.252,314.511,166.252,337.398z"/>
<path fill="#FFFFFF" d="M249.346,354.913c-3.778,0-7.756-0.786-11.926-2.361c-4.174-1.572-8.384-3.933-12.634-7.085
	c-0.472,5.039-1.104,8.501-1.89,10.391c-1.261,2.676-3.229,4.015-5.904,4.015c-5.041,0-12.834-3.623-23.38-10.865
	c-7.244-5.349-11.495-8.027-12.753-8.027c-0.159,0-2.598,2.361-7.321,7.083c-4.882,4.568-5.742,6.946-10.306,6.946
	c-1.258,0,1.55-0.709,0.289-1.024c-1.258-0.315-0.289-0.329-0.289-0.962v-15.113c0-0.474,0.631-0.865,1.89-1.18
	c1.261-0.315-0.729-0.474,0.529-0.474h1.417c10.391,0,12.293-4.486,18.278-13.461c6.14-9.758,11.726-14.642,16.767-14.642
	c3.778,0,8.107,2.443,12.989,7.321c8.657,8.819,13.381,13.305,14.169,13.461c5.982,4.883,12.359,7.321,19.129,7.321h0.945V354.913z
	 M210.852,339.798c0.155-3.777-0.553-8.107-2.125-12.987c-2.207-5.196-4.41-7.792-6.613-7.792c-2.361,0-5.431,2.991-9.211,8.972
	c1.89,1.416,4.329,3.111,7.322,5.078C203.214,335.038,206.756,337.284,210.852,339.798z"/>
<path fill="#FFFFFF" d="M397.778,354.913c-6.929,0-12.044-3.306-15.35-9.92c-2.52,6.773-6.458,10.156-11.808,10.156
	c-0.316,0-0.867-0.079-1.653-0.236c-0.79-0.156-1.853-0.471-3.188-0.945c-1.339-0.471-3.111-1.139-5.313-2.008
	c-2.207-0.863-4.882-2.084-8.03-3.659c-5.668-2.676-9.605-4.489-11.807-5.434c-2.207-0.942-3.466-1.416-3.78-1.416
	c-0.472,0-1.102,0.159-1.888,0.474c-0.79,0.315-1.735,0.63-2.835,0.942c-2.52,1.104-4.686,2.325-6.494,3.662
	c-1.812,1.339-3.623,2.637-5.432,3.897c-1.812,1.26-3.778,2.323-5.904,3.188c-2.125,0.865-57.976,1.298-60.965,1.298h-1.18
	c-1.258,0-2.517-0.156-3.778-0.471c-1.258-0.315-1.89-0.786-1.89-1.419v-15.113c0-0.474,0.631-0.865,1.89-1.18
	c1.261-0.315,2.52-0.474,3.778-0.474h0.472c4.092,0,60.375-0.194,62.264-0.589c1.89-0.392,3.778-1.142,5.668-2.246
	c-1.576-1.572-2.361-3.933-2.361-7.083c0-9.761,6.294-18.657,18.892-26.687c-1.576-1.26-3.07-2.202-4.488-2.835
	c-1.417-0.627-2.125-1.337-2.125-2.125c0-0.471,0.472-1.534,1.417-3.188c0.945-1.654,2.125-3.382,3.543-5.196
	c1.416-1.808,2.911-3.462,4.486-4.96c1.572-1.493,3.07-2.243,4.488-2.243c2.674,0,6.295,1.931,10.864,5.787
	c4.564,3.859,9.011,8.583,13.342,14.168c4.329,5.59,8.107,11.536,11.336,17.83c3.225,6.299,4.841,11.889,4.841,16.77
	c0,0.471-0.04,0.983-0.118,1.534c-0.081,0.553-0.118,0.907-0.118,1.063h13.224V354.913z M348.185,317.129
	c0-4.092-0.826-6.732-2.48-7.912c-1.653-1.18-3.424-1.772-5.313-1.772c-1.734,0-3.347,0.318-4.841,0.945
	c-1.498,0.633-2.874,1.419-4.133,2.364c-1.263,0.942-2.284,1.928-3.07,2.95c-0.79,1.027-1.263,1.854-1.417,2.481
	c0,1.104,0.509,2.205,1.535,3.306c1.023,1.104,2.281,2.125,3.78,3.07c1.494,0.945,3.029,1.734,4.604,2.361
	c1.572,0.633,2.911,0.945,4.015,0.945c4.405,0,6.848-2.202,7.321-6.612V317.129z M375.815,337.437
	c-1.102-3.306-2.951-6.729-5.549-10.273c-2.598-3.541-5.945-7.28-10.038-11.215c-0.945-0.945-1.653-1.419-2.125-1.419
	s-0.708,0.474-0.708,1.419c-0.159,5.984-2.284,10.547-6.376,13.697c2.202,1.26,5.233,2.714,9.092,4.368
	c3.856,1.654,8.462,3.659,13.816,6.023c0.627,0.318,1.022,0.471,1.18,0.471c0.472,0,0.708-0.392,0.708-1.18V337.437z"/>
<path fill="#FFFFFF" d="M417.438,336.492c5.196,0,10.309-0.627,15.35-1.89c4.407-1.098,6.613-2.361,6.613-3.777
	c0-3.308-3.388-8.893-10.156-16.767l8.03-13.461c1.258-2.676,2.517-2.911,3.778-0.709c4.251,6.929,6.376,15.195,6.376,24.797
	c0,3.465-1.102,7.874-3.306,13.223c-1.89,5.042-3.623,8.348-5.196,9.92c-4.882,4.881-12.125,7.321-21.727,7.321h-17.478
	c-1.258,0-2.517-0.156-3.778-0.471c-1.258-0.315-1.89-0.786-1.89-1.419v-15.113c0-0.474,0.631-0.865,1.89-1.18
	c1.261-0.315,2.52-0.474,3.778-0.474H417.438z"/>
<rect x="99.249" y="304.122" transform="matrix(0.7071 -0.7071 0.7071 0.7071 -190.7001 170.6571)" fill="#FFFFFF" width="22.804" height="22.804"/>
<rect x="405.499" y="364.436" transform="matrix(0.7071 -0.7071 0.7071 0.7071 -143.4845 404.4732)" fill="#FFFFFF" width="22.003" height="22.003"/>
<rect x="296.263" y="140.359" transform="matrix(0.7071 -0.7071 0.7071 0.7071 -15.7247 258.445)" fill="#FFFFFF" width="15.691" height="15.691"/>
<rect x="336.957" y="157.977" transform="matrix(0.7071 -0.7071 0.7071 0.7071 -16.1918 292.2068)" fill="#FFFFFF" width="15.343" height="15.343"/>
<rect x="358.655" y="157.977" transform="matrix(0.7071 -0.7071 0.7071 0.7071 -9.8366 307.5496)" fill="#FFFFFF" width="15.343" height="15.343"/>
<rect x="101.679" y="167.718" transform="matrix(0.7071 -0.7071 0.7071 0.7071 -92.001 128.7167)" fill="#FFFFFF" width="15.391" height="15.391"/>
<rect x="123.444" y="167.718" transform="matrix(0.7071 -0.7071 0.7071 0.7071 -85.626 144.1072)" fill="#FFFFFF" width="15.391" height="15.391"/>
<rect x="285.168" y="157.312" transform="matrix(0.7071 -0.7071 0.7071 0.7071 -30.9619 255.5652)" fill="#FFFFFF" width="15.691" height="15.691"/>
<rect x="307.358" y="157.312" transform="matrix(0.7071 -0.7071 0.7071 0.7071 -24.4627 271.2557)" fill="#FFFFFF" width="15.691" height="15.691"/>
</svg>
