<?xml version="1.0" encoding="utf-8"?>
<!-- Generator: Adobe Illustrator 17.0.0, SVG Export Plug-In . SVG Version: 6.00 Build 0)  -->
<!DOCTYPE svg PUBLIC "-//W3C//DTD SVG 1.1//EN" "http://www.w3.org/Graphics/SVG/1.1/DTD/svg11.dtd">
<svg version="1.1" id="Layer_1" xmlns="http://www.w3.org/2000/svg" xmlns:xlink="http://www.w3.org/1999/xlink" x="0px" y="0px"
	 width="500px" height="500px" viewBox="0 0 500 500" enable-background="new 0 0 500 500" xml:space="preserve">
<g>
	<g>
		<path fill="#FFFFFF" d="M435.711,224.048c0-42.14,0-84.298,0.014-126.443c0-4.006-0.285-7.989-1.198-11.886
			c-6.176-26.118-28.568-43.93-55.4-43.93c-82.671-0.032-165.364-0.014-248.035-0.014c-3.025,0-6.027,0.172-9.042,0.506
			C95.982,45.12,72.599,67.291,72.504,97.37c-0.276,84.095-0.136,168.172-0.045,252.253c0.014,8.843,2.012,17.401,6.338,25.182
			c11.302,20.29,28.618,30.381,51.906,30.367c82.35-0.036,164.699-0.018,247.058-0.036c2.921,0,5.859,0.081,8.748-0.285
			c28.916-3.644,49.586-28.767,49.31-56.304C435.399,307.053,435.711,265.559,435.711,224.048 M386.415,393.707
			c-3.278,0.583-6.664,0.71-9.996,0.71c-81.613,0.05-163.239,0.063-244.847,0.018c-18.346-0.018-32.827-7.347-42.267-23.45
			c-3.956-6.741-5.859-14.146-5.868-21.963c-0.027-41.842-0.014-83.67-0.014-125.494c0-41.62,0-83.245,0.009-124.861
			c0-25.44,20.164-45.825,45.612-45.838c83.448-0.063,166.906-0.05,250.359-0.018c23.464,0.018,42.782,17.573,45.219,40.752
			c0.289,2.686,0.389,5.371,0.389,8.07v245.824C425.01,371.034,409.562,389.615,386.415,393.707"/>
		<path fill="#FFFFFF" d="M114.946,302.537c0.561-12.125,3.734-22.325,13.468-29.432c42.561-31.041,87.807-57.177,137.47-75.238
			c24.725-8.997,50.079-15.344,76.337-17.745c19.68-1.786,39.242-0.931,58.633,3.061c2.591,0.538,3.567,1.361,3.133,4.25
			c-2.161,14.481-9.458,26.226-19.214,36.661c-7.957,8.495-17.234,15.001-28.826,17.641c-3.165,0.71-6.379,1.085-9.639,1.026
			c-43.501-1.026-85.994,5.493-127.777,17.225c-35.2,9.883-68.99,23.274-100.899,41.259
			C116.998,301.606,116.32,301.873,114.946,302.537"/>
		<path fill="#FFFFFF" d="M339.511,300.643c-8.228-0.19-16.262-1.971-24.404-2.921c-25.584-2.966-51.187-3.87-76.893-1.881
			c-29.622,2.292-58.47,8.21-86.604,17.654c-9.404,3.156-18.681,6.678-27.741,10.688c-2.369,1.062-3.065,0.488-3.02-1.908
			c0.167-8.273,3.16-14.861,10.832-18.821c41.842-21.714,86.021-36.507,132.325-45.11c27.89-5.181,56.019-7.659,84.384-6.962
			c14.576,0.362,29.07,1.799,43.501,3.915c3.106,0.457,3.445,1.451,2.419,4.277c-7.419,20.512-32.14,40.042-52.217,41.055
			C341.238,300.674,340.37,300.643,339.511,300.643"/>
		<path fill="#FFFFFF" d="M321.986,343.291c-7.035,0.045-13.572-2.383-20.277-3.965c-20.145-4.72-40.526-7.324-61.214-7.907
			c-35.282-1.026-69.687,4.263-103.549,13.766c-4.53,1.279-5.027,0.981-6.004-3.68c-1.383-6.628,1.153-11.447,7.419-13.893
			c30.616-12.03,62.29-19.562,95.045-22.609c44.875-4.168,89.014,0.457,132.718,10.719c0.316,0.077,0.615,0.203,0.932,0.285
			c6.008,1.42,6.144,1.546,2.084,6.081c-9.716,10.891-22.261,16.75-36.245,19.942C329.318,342.866,325.656,343.146,321.986,343.291"
			/>
		<path fill="#FFFFFF" d="M205.814,128.711c6.677-3.978,11.718-9.001,14.63-15.932c0.877-2.084,2.319-0.882,3.526-0.411
			c21.041,8.246,35.06,23.039,41.557,44.798c2.799,9.331,3.178,18.898,2.609,28.546c-0.086,1.623-0.76,2.432-2.328,2.984
			c-50.725,18.061-96.989,44.401-140.449,75.898c-2.193,1.578-4.34,2.324-6.899,1.062c-2.645-1.311-3.54-3.459-3.472-6.366
			c0.154-6.271,0.095-12.519,0.163-18.789c0.032-3.49,1.144-4.372,4.625-3.648c11.339,2.351,22.329,1.564,32.813-3.63
			c5.809-2.875,10.217-7.152,12.519-13.36c1.478-3.997,4.598-6.551,8.156-8.432c6.664-3.535,13.527-6.709,20.195-10.231
			c11.036-5.828,19.897-13.816,24.006-25.991c5.484-16.212,2.514-30.82-8.997-43.596
			C207.668,130.732,206.867,129.864,205.814,128.711"/>
		<path fill="#FFFFFF" d="M231.022,340.008c37.755-0.095,72.937,6.659,107.007,19.517c1.406,0.534,4.128,0.741,1.252,3.029
			c-16.687,13.233-35.255,20.575-56.811,16.325c-9.051-1.799-17.618-5.696-26.665-7.83c-16.994-3.978-34.192-5.936-51.612-6.551
			c-16.334-0.588-32.578,0.443-48.804,2.256c-2.202,0.235-3.965-0.063-5.493-1.786c-0.99-1.135-2.22-2.048-3.373-3.029
			c-2.053-1.754-3.748-3.698-2.97-6.664c0.782-2.939,3.232-3.838,5.837-4.422c8.106-1.817,16.185-3.789,24.341-5.353
			c7.197-1.356,14.472-2.432,21.742-3.318C207.711,340.686,219.986,339.895,231.022,340.008"/>
		<path fill="#FFFFFF" d="M115.143,214.527c0-2.053,0.24-4.137-0.063-6.139c-0.52-3.535,1.121-4.173,4.25-4.471
			c15.923-1.501,30.842-6.14,44.215-15.127c5.624-3.757,10.516-8.301,13.753-14.368c3.838-7.197,4.006-14.463-0.204-21.565
			c-1.058-1.786-0.918-2.387,1.071-3.129c5.9-2.193,9.797-6.506,12.175-12.265c1.908-4.63,6.167-5.547,9.702-2.116
			c16.768,16.294,14.702,41.114-4.539,54.473c-5.606,3.897-11.841,6.628-17.966,9.566c-4.196,1.989-8.364,4.01-12.121,6.786
			c-3.26,2.405-6.325,5.136-7.672,9.001c-2.622,7.505-8.432,10.864-15.516,12.745c-7.564,1.989-15.141,1.971-22.704-0.095
			c-2.993-0.823-4.557-2.604-4.403-5.846C115.229,219.5,115.143,217.004,115.143,214.527"/>
		<path fill="#FFFFFF" d="M115.23,155.458c0-6.456,0.022-12.265-0.014-18.079c-0.009-2.066,1.221-1.528,2.392-1.279
			c4.86,1.013,9.485,0.285,13.744-2.161c6.008-3.472,9.449-8.622,9.86-15.71c0.371-6.569,0.479-6.506,7.044-6.551
			c3.015-0.018,6.031-0.285,9.047-0.398c0.945-0.045,2.084-0.222,2.455,0.981c0.321,1.026-0.624,1.528-1.28,2.053
			c-3.757,2.97-6.465,6.632-7.618,11.321c-2.125,8.653,1.524,17.605,9.214,22.388c2.776,1.736,5.312,3.712,7.428,6.189
			c4.96,5.764,5.29,11.777,0.963,18.061c-4.155,6.054-10.059,10.046-16.416,13.36c-10.443,5.434-21.646,8.418-33.297,9.792
			c-2.591,0.316-3.807,0-3.703-3.192c0.267-8.54,0.127-17.067,0.072-25.611c-0.018-2.256,0.036-3.332,2.889-2.003
			c8.373,3.87,18.993,0.032,23.491-8.02c1.031-1.849,0.76-2.826-1.085-3.761c-7.423-3.802-14.711-3.694-21.909,0.493
			C117.59,153.862,116.731,154.495,115.23,155.458"/>
		<path fill="#FFFFFF" d="M215.17,96.232c-0.298,12.55-5.443,21.949-17.6,26.733c-2.206,0.868-4.39,1.786-6.583,2.685
			c-4.241,1.75-7.478,4.277-9.037,8.983c-1.754,5.24-6.515,8.02-11.818,7.735c-4.874-0.253-9.033-3.472-10.543-8.196
			c-2.089-6.551,1.302-13.07,8.463-15.073c5.14-1.442,8.386-4.598,10.81-9.019c2.527-4.625,4.878-9.363,7.604-13.861
			c4.829-8.007,11.99-12.442,21.339-13.405c2.518-0.271,4.141,0.552,5.281,2.731C214.831,88.89,215.269,92.489,215.17,96.232"/>
		<path fill="#FFFFFF" d="M144.448,84.991c0.271,3.68-1.067,7.202-3.386,10.281c-5.204,6.913-8.314,14.431-8.621,23.256
			c-0.204,5.638-5.819,9.661-11.709,9.254c-5.701-0.411-10.213-5.009-10.231-10.579c-0.005-5.561,2.401-10.235,5.66-14.526
			c2.685-3.553,5.932-6.573,9.214-9.539c8.201-7.419,8.748-14.228,1.732-22.799c-0.411-0.506-0.904-0.949-1.266-1.483
			c-0.497-0.728-0.945-1.515-0.33-2.387c0.511-0.71,1.293-0.615,2.062-0.52C136.988,67.007,144.426,75.248,144.448,84.991"/>
	</g>
	<path fill="#FFFFFF" d="M105.537,451.648h-1.406c-1.564,0-2.645-0.24-3.228-0.696c0.086,0.741,0.131,1.451,0.131,2.147
		c0,4.137-1.406,7.247-4.209,9.349c-2.509,1.894-5.886,2.826-10.14,2.826c-3.617,0-6.587-0.678-8.897-2.084
		c-2.821-1.704-4.227-4.232-4.227-7.595c0-3.332,0.76-6.126,2.274-8.4c0.398-0.583,0.814-0.882,1.248-0.882
		c0.348,0,0.52,0.217,0.52,0.678c0,0.249-0.054,0.538-0.158,0.868c-0.542,1.641-0.809,3.092-0.809,4.39
		c0,4.105,3.386,6.171,10.14,6.171c2.685,0,5.127-0.316,7.329-0.931c3.278-0.918,4.919-2.337,4.919-4.245
		c0-1.343-1.885-4.028-5.647-8.038l2.993-5.005c0.244-0.393,0.452-0.601,0.615-0.601c0.167,0,0.366,0.158,0.61,0.475
		c1.23,1.515,2.188,2.559,2.848,3.124c1.225,1.026,2.509,1.551,3.852,1.551h1.243V451.648z M89.808,437.737
		c0.19,0.19,0.181,0.38-0.009,0.583l-2.835,2.798c-0.19,0.203-0.393,0.203-0.615,0.014l-2.866-2.767
		c-0.226-0.217-0.203-0.47,0.072-0.755l2.627-2.654c0.244-0.253,0.484-0.253,0.728,0L89.808,437.737z"/>
	<path fill="#FFFFFF" d="M127.672,451.647h-1.668c-1.135,0-2.098-0.348-2.88-1.044c-0.466-0.425-1.035-1.153-1.695-2.179
		c-1.184,2.69-2.663,4.015-4.462,4.015c-2.202,0-4.349-1.628-6.442-4.896c-0.434,1.008-1.013,1.894-1.75,2.654
		c-0.949,0.963-1.953,1.451-3.02,1.451h-1.46v-6.899h1.542c1.374,0,2.265-0.425,2.69-1.261c0.208-0.43,0.316-1.171,0.316-2.215
		c0-1.736,0.443-3.219,1.334-4.467c1.121-1.564,2.74-2.337,4.865-2.337c1.664,0,3.156,0.9,4.507,2.685l2.961,4.91
		c1.09,1.799,2.184,2.685,3.287,2.685h1.876V451.647z M118.712,446.927c0.646,0,0.972-0.461,0.972-1.388
		c0-1.076-0.402-2.432-1.225-4.073c-1.099-2.179-2.319-3.287-3.662-3.287c-0.958,0-1.429,0.646-1.429,1.908
		c0,1.126,0.371,2.31,1.103,3.522C115.804,445.82,117.211,446.927,118.712,446.927"/>
	<path fill="#FFFFFF" d="M145.324,451.647h-5.47c2.41,1.799,3.626,3.662,3.626,5.592c0,0.913-0.357,1.768-1.067,2.496
		c-0.963,1.008-2.41,1.515-4.304,1.515c-2.129,0-4.082-1.09-5.864-3.273c-1.628-2.003-2.554-4.105-2.78-6.329h-2.848v-6.899h2.997
		c0.484-2.464,1.727-4.752,3.748-6.872c2.184-2.288,4.462-3.422,6.84-3.422c0.931,0,1.722,0.362,2.369,1.103
		c0.606,0.728,0.909,1.564,0.909,2.527c0,1.311-0.588,2.731-1.745,4.232c-0.769,0.981-1.555,1.799-2.378,2.432h5.968V451.647z
		 M138.33,456.589c1.198,0,1.79-0.298,1.79-0.886c0-1.008-1.465-2.351-4.39-4.055h-3.96c0.244,1.139,0.859,2.179,1.831,3.11
		C134.871,455.974,136.449,456.589,138.33,456.589 M136.775,440.105c-1.79,0-3.395,1.546-4.801,4.643h4.037
		c1.528-1.044,2.297-2.147,2.297-3.364C138.307,440.53,137.801,440.105,136.775,440.105"/>
	<path fill="#FFFFFF" d="M153.256,441.813c0,2.351-0.551,4.449-1.632,6.316c-1.374,2.351-3.332,3.522-5.868,3.522h-1.673v-6.904
		h1.397c2.993,0,4.494-0.443,4.494-1.311c0-0.773-1.352-2.401-4.033-4.878l3.237-4.991c0.181-0.267,0.393-0.316,0.628-0.109
		c1.243,1.008,2.175,2.496,2.789,4.453C153.03,439.317,153.256,440.611,153.256,441.813 M152.027,458.468
		c0.199,0.176,0.181,0.38-0.014,0.583l-2.835,2.812c-0.199,0.19-0.402,0.19-0.61,0l-2.857-2.767
		c-0.231-0.217-0.199-0.47,0.063-0.755l2.631-2.667c0.244-0.24,0.479-0.24,0.714,0.014L152.027,458.468z"/>
	<path fill="#FFFFFF" d="M208.908,451.65h-1.225c-1.175,0-2.161-0.778-2.966-2.355c-1.026,1.609-2.138,2.401-3.345,2.401
		c-1.51,0-2.758-0.791-3.734-2.401c-0.99,1.578-2.125,2.355-3.418,2.355c-0.927,0-1.786-0.158-2.609-0.475
		c0,4.593-1.248,8.084-3.757,10.498c-2.505,2.401-6.054,3.599-10.665,3.599c-3.617,0-6.587-0.692-8.893-2.084
		c-2.817-1.704-4.232-4.232-4.232-7.591c0-3.318,0.768-6.126,2.283-8.4c0.398-0.588,0.814-0.886,1.248-0.886
		c0.348,0,0.529,0.222,0.529,0.678c0,0.253-0.063,0.538-0.167,0.868c-0.542,1.641-0.809,3.097-0.809,4.39
		c0,4.105,3.377,6.171,10.136,6.171c2.69,0,5.131-0.312,7.342-0.927c3.269-0.918,4.901-2.337,4.901-4.25
		c0-1.343-1.872-4.024-5.638-8.038l2.789-5c0.212-0.38,0.416-0.57,0.606-0.57c0.181,0,0.398,0.14,0.615,0.425
		c1.243,1.596,2.111,2.622,2.609,3.11c1.094,1.058,2.161,1.582,3.214,1.582c0.881,0,1.487-0.398,1.804-1.157
		c0.072-0.362,0.222-1.058,0.43-2.098c0.172-0.755,0.511-1.139,1.017-1.139c0.506,0,0.836,0.384,1.004,1.139
		c0.285,1.311,0.466,2.003,0.52,2.098c0.348,0.76,0.995,1.157,1.949,1.157c0.9,0,1.519-0.398,1.849-1.157l0.497-2.098
		c0.181-0.755,0.538-1.139,1.076-1.139c0.457,0,0.769,0.384,0.913,1.139c0.244,1.23,0.421,1.94,0.506,2.116
		c0.362,0.76,1.022,1.139,1.989,1.139h1.632V451.65z M202.276,430.175c0.176,0.185,0.167,0.362-0.023,0.57l-2.654,2.618
		c-0.194,0.176-0.38,0.176-0.565,0l-2.559-2.554l-2.514,2.554c-0.181,0.176-0.371,0.176-0.561,0l-2.699-2.604
		c-0.212-0.19-0.19-0.411,0.072-0.678l2.446-2.478c0.231-0.24,0.452-0.24,0.683,0l2.487,2.478l2.496-2.478
		c0.203-0.226,0.425-0.226,0.651,0L202.276,430.175z M199.513,424.962c0.176,0.19,0.176,0.38-0.009,0.583l-2.613,2.572
		c-0.185,0.176-0.375,0.176-0.574,0l-2.631-2.536c-0.204-0.208-0.185-0.443,0.059-0.683l2.437-2.477
		c0.222-0.203,0.429-0.203,0.642,0L199.513,424.962z"/>
	<path fill="#FFFFFF" d="M216.852,441.81c0,2.355-0.547,4.453-1.637,6.32c-1.37,2.346-3.323,3.517-5.855,3.517h-1.677v-6.899h1.397
		c2.993,0,4.485-0.443,4.485-1.311c0-0.778-1.338-2.401-4.024-4.878l3.237-4.991c0.181-0.267,0.389-0.316,0.633-0.109
		c1.234,1.008,2.161,2.491,2.776,4.449C216.63,439.315,216.852,440.612,216.852,441.81 M216.124,427.095
		c0.199,0.19,0.19,0.38-0.041,0.601l-2.794,2.812c-0.199,0.203-0.389,0.203-0.601,0l-2.884-2.78
		c-0.226-0.203-0.199-0.443,0.077-0.728l2.622-2.667c0.226-0.24,0.47-0.24,0.732,0L216.124,427.095z"/>
	<path fill="#FFFFFF" d="M227.872,423.509l-2.17,26.321c-0.109,1.311-0.457,1.958-1.044,1.958c-0.601,0-0.999-0.818-1.198-2.464
		l-2.582-22.026l6.112-4.435c0.267-0.19,0.479-0.298,0.628-0.298C227.831,422.565,227.921,422.881,227.872,423.509"/>
	<path fill="#FFFFFF" d="M250.395,441.132c0,3.49-0.479,5.95-1.42,7.405c-1.352,2.084-3.635,3.11-6.867,3.11h-4.566
		c-1.777,0-3.142-0.52-4.123-1.578c-0.968-1.062-1.451-2.478-1.451-4.263c0-1.248,0.154-2.509,0.43-3.789
		c0.194-0.873,0.561-1.298,1.09-1.298c0.637,0,1.067,0.651,1.284,1.958c0.231,1.374,2.093,2.071,5.583,2.071
		c5.303,0,7.957-0.601,7.957-1.768c0-0.791-1.325-2.197-3.969-4.205c-2.654-2.016-4.422-3.011-5.317-3.011
		c-0.212,0-0.439,0.059-0.705,0.203c-0.271,0.127-0.448,0.203-0.538,0.203c-0.565,0-0.854-0.298-0.854-0.918
		c0-0.185,0.054-0.425,0.158-0.692l2.107-5.321c0.19-0.475,0.547-0.723,1.067-0.723c1.257,0,3.205,1.433,5.832,4.309
		C248.967,435.955,250.395,438.718,250.395,441.132"/>
	<path fill="#FFFFFF" d="M273.986,423.146c-0.118,0.854-0.411,1.609-0.877,2.242c-0.561,0.76-1.23,1.139-2.016,1.139
		c-0.723,0-1.442-0.366-2.152-1.09c-0.646,1.483-1.605,2.211-2.875,2.211c-0.723,0-1.302-0.285-1.745-0.854
		c-0.402-0.52-0.606-1.135-0.606-1.881c0-1.831,0.402-2.726,1.216-2.726c0.158,0,0.38,0.439,0.66,1.338
		c0.289,0.886,0.538,1.343,0.769,1.343c0.723,0,1.325-0.57,1.795-1.691c0.457-1.121,0.746-1.673,0.859-1.673
		c0.19,0,0.448,0.38,0.755,1.171c0.307,0.787,0.782,1.185,1.438,1.185c0.769,0,1.153-0.524,1.153-1.551
		c0-0.393-0.063-0.836-0.181-1.356l1.524-0.791C274.058,420.89,274.153,421.885,273.986,423.146"/>
	<path fill="#FFFFFF" d="M274.798,445.048c0,5.24-1.7,9.711-5.091,13.373c-0.52,0.552-0.918,0.913-1.203,1.058
		c-0.289,0.158-0.778,0.24-1.469,0.253c-1.442,0.045-3.156-0.05-5.136-0.271c-2.862-0.312-4.281-0.787-4.281-1.433
		c0-0.524,0.61-1.026,1.831-1.501c2.45-0.977,4.526-1.944,6.23-2.939c4.422-2.523,6.623-4.702,6.623-6.533
		c0-1.537-2.044-3.775-6.135-6.745l3.287-4.973c0.212-0.33,0.425-0.506,0.655-0.506c0.217,0,0.502,0.176,0.886,0.506
		c0.904,0.791,1.718,1.976,2.446,3.553C274.341,440.861,274.798,442.918,274.798,445.048"/>
	<path fill="#FFFFFF" d="M297.338,441.132c0,3.49-0.475,5.95-1.42,7.405c-1.352,2.084-3.635,3.11-6.863,3.11h-4.571
		c-1.768,0-3.133-0.52-4.114-1.578c-0.972-1.062-1.451-2.478-1.451-4.263c0-1.248,0.145-2.509,0.425-3.789
		c0.199-0.873,0.561-1.298,1.085-1.298c0.633,0,1.067,0.651,1.293,1.958c0.226,1.374,2.084,2.071,5.583,2.071
		c5.294,0,7.948-0.601,7.948-1.768c0-0.791-1.325-2.197-3.969-4.205c-2.645-2.016-4.421-3.011-5.307-3.011
		c-0.213,0-0.457,0.059-0.71,0.203c-0.271,0.127-0.452,0.203-0.538,0.203c-0.574,0-0.859-0.298-0.859-0.918
		c0-0.185,0.063-0.425,0.167-0.692l2.098-5.321c0.199-0.475,0.552-0.723,1.067-0.723c1.261,0,3.214,1.433,5.841,4.309
		C295.909,435.955,297.338,438.718,297.338,441.132"/>
	<path fill="#FFFFFF" d="M344.574,438.337c0,2.731-0.421,4.96-1.248,6.678c-0.972,1.976-2.577,3.535-4.824,4.657
		c-2.613,1.311-7.003,1.976-13.17,1.976c-3.26,0-5.796-0.14-7.613-0.443c-5.76-0.981-8.635-3.978-8.635-9.033
		c0-2.523,0.348-4.575,1.035-6.108c0.321-0.71,0.687-1.071,1.112-1.071c0.443,0,0.669,0.28,0.669,0.832
		c0,0.258-0.036,0.601-0.118,1.062c-0.086,0.457-0.126,0.805-0.126,1.04c0,2.116,0.628,3.648,1.881,4.598
		c1.998,1.515,5.891,2.27,11.709,2.27c4.024,0,7.491-0.217,10.403-0.66c3.73-0.556,5.588-1.392,5.588-2.478
		c0-0.904-1.411-2.405-4.254-4.535l2.988-6.094c0.154-0.303,0.267-0.457,0.334-0.475c0.104-0.018,0.271,0.081,0.533,0.253
		c0.85,0.583,1.655,1.533,2.401,2.826C344.131,435.195,344.574,436.76,344.574,438.337 M331.87,429.558
		c0.181,0.19,0.181,0.38-0.014,0.57l-2.631,2.622c-0.181,0.19-0.371,0.19-0.57,0l-2.568-2.559l-2.532,2.559
		c-0.181,0.19-0.371,0.19-0.56,0l-2.668-2.591c-0.212-0.203-0.19-0.425,0.059-0.696l2.45-2.478c0.212-0.235,0.434-0.235,0.656,0
		l2.496,2.478l2.486-2.478c0.226-0.235,0.448-0.235,0.678,0L331.87,429.558z"/>
	<path fill="#FFFFFF" d="M355.57,423.509l-2.17,26.321c-0.113,1.311-0.457,1.958-1.053,1.958c-0.592,0-1.004-0.818-1.189-2.464
		l-2.582-22.026l6.108-4.435c0.271-0.19,0.488-0.298,0.633-0.298C355.529,422.565,355.615,422.881,355.57,423.509"/>
	<path fill="#FFFFFF" d="M368.549,445.048c0,5.24-1.7,9.711-5.091,13.373c-0.511,0.552-0.918,0.913-1.203,1.058
		c-0.289,0.158-0.782,0.24-1.469,0.253c-1.433,0.045-3.147-0.05-5.14-0.271c-2.857-0.312-4.277-0.787-4.277-1.433
		c0-0.524,0.61-1.026,1.831-1.501c2.446-0.977,4.525-1.944,6.23-2.939c4.422-2.523,6.623-4.702,6.623-6.533
		c0-1.537-2.044-3.775-6.135-6.745l3.287-4.973c0.212-0.33,0.425-0.506,0.655-0.506c0.217,0,0.502,0.176,0.891,0.506
		c0.9,0.791,1.713,1.976,2.441,3.553C368.101,440.861,368.549,442.918,368.549,445.048"/>
	<path fill="#FFFFFF" d="M381.449,451.648h-2.22c-4.001,0-5.999-3.223-5.999-9.666c0-5.145-0.19-10.547-0.56-16.244l4.096-2.907
		c0.506-0.362,0.854-0.538,1.022-0.538c0.213,0,0.316,0.38,0.316,1.139v18.075c0,2.152,0.904,3.242,2.717,3.242h0.629V451.648z"/>
	<path fill="#FFFFFF" d="M403.425,451.65h-1.221c-1.144,0-2.134-0.778-2.97-2.355c-0.9,1.609-2.012,2.401-3.323,2.401
		c-1.524,0-2.776-0.791-3.757-2.401c-0.972,1.578-2.098,2.355-3.395,2.355c-1.492,0-2.708-0.76-3.648-2.292
		c-0.253,0.457-0.728,0.918-1.406,1.406c-0.805,0.588-1.551,0.886-2.233,0.886h-1.288v-6.899h1.085c0.936,0,1.578-0.38,1.926-1.139
		c0.059-0.145,0.212-0.836,0.475-2.116c0.158-0.755,0.466-1.139,0.945-1.139c0.452,0,0.773,0.384,0.959,1.139l0.497,2.116
		c0.298,0.76,0.85,1.139,1.646,1.139c1.103,0,1.872-0.398,2.292-1.157c0.145-0.267,0.339-0.977,0.561-2.098
		c0.149-0.755,0.466-1.139,0.931-1.139c0.466,0,0.791,0.384,0.949,1.139c0.276,1.216,0.448,1.926,0.543,2.098
		c0.38,0.76,1.058,1.157,2.039,1.157c0.922,0,1.546-0.398,1.876-1.157c0.054-0.253,0.222-0.963,0.484-2.098
		c0.158-0.755,0.488-1.139,0.995-1.139c0.416,0,0.71,0.384,0.877,1.139c0.271,1.185,0.466,1.876,0.565,2.116
		c0.38,0.76,1.035,1.139,1.976,1.139h1.623V451.65z M398.176,430.175c0.185,0.185,0.176,0.362-0.023,0.57l-2.622,2.618
		c-0.181,0.176-0.371,0.176-0.565,0l-2.568-2.554l-2.541,2.554c-0.172,0.176-0.366,0.176-0.552,0l-2.668-2.604
		c-0.217-0.203-0.199-0.425,0.059-0.678l2.442-2.478c0.221-0.24,0.443-0.24,0.664,0l2.491,2.478l2.491-2.478
		c0.226-0.24,0.448-0.24,0.678,0L398.176,430.175z M395.414,424.962c0.176,0.176,0.167,0.38-0.023,0.57l-2.573,2.586
		c-0.185,0.176-0.371,0.176-0.579-0.014l-2.645-2.509c-0.217-0.208-0.199-0.443,0.072-0.696l2.414-2.477
		c0.222-0.203,0.434-0.203,0.665,0L395.414,424.962z"/>
	<path fill="#FFFFFF" d="M416.034,451.649h-1.704c-2.559,0-4.318-1.456-5.267-4.39c-0.868,2.934-2.509,4.39-4.941,4.39h-1.94v-6.899
		h1.243c2.41,0,3.96-1.6,4.62-4.77c0.208-1.013,0.592-1.519,1.13-1.519c0.543,0,0.877,0.506,0.995,1.519
		c0.362,3.169,1.754,4.77,4.159,4.77h1.704V451.649z M414.922,431.422c0.181,0.176,0.176,0.362-0.032,0.552l-2.613,2.636
		c-0.181,0.176-0.371,0.176-0.57,0l-2.563-2.559l-2.536,2.545c-0.181,0.19-0.361,0.203-0.56,0.014l-2.677-2.604
		c-0.212-0.19-0.19-0.43,0.081-0.678l2.446-2.496c0.222-0.221,0.452-0.221,0.678,0l2.486,2.496l2.464-2.496
		c0.231-0.221,0.461-0.221,0.678,0L414.922,431.422z"/>
	<path fill="#FFFFFF" d="M423.963,441.81c0,2.355-0.552,4.453-1.637,6.32c-1.37,2.346-3.323,3.517-5.864,3.517h-1.668v-6.899h1.397
		c2.993,0,4.485-0.443,4.485-1.311c0-0.778-1.343-2.401-4.033-4.878l3.246-4.991c0.172-0.267,0.384-0.316,0.633-0.109
		c1.23,1.008,2.161,2.491,2.776,4.449C423.733,439.315,423.963,440.612,423.963,441.81 M423.235,427.095
		c0.19,0.19,0.181,0.38-0.032,0.601l-2.812,2.812c-0.19,0.203-0.384,0.203-0.597,0l-2.884-2.78c-0.23-0.203-0.203-0.443,0.072-0.728
		l2.631-2.667c0.226-0.24,0.461-0.24,0.723,0L423.235,427.095z"/>
	<path fill="#FFFFFF" d="M434.982,423.509l-2.179,26.321c-0.099,1.311-0.448,1.958-1.04,1.958c-0.601,0-1.004-0.818-1.193-2.464
		l-2.582-22.026l6.113-4.435c0.267-0.19,0.488-0.298,0.633-0.298C434.941,422.565,435.032,422.881,434.982,423.509"/>
</g>
</svg>
