<?xml version="1.0" encoding="utf-8"?>
<!-- Generator: Adobe Illustrator 17.0.0, SVG Export Plug-In . SVG Version: 6.00 Build 0)  -->
<!DOCTYPE svg PUBLIC "-//W3C//DTD SVG 1.1//EN" "http://www.w3.org/Graphics/SVG/1.1/DTD/svg11.dtd">
<svg version="1.1" id="Layer_1" xmlns="http://www.w3.org/2000/svg" xmlns:xlink="http://www.w3.org/1999/xlink" x="0px" y="0px"
	 width="500px" height="500px" viewBox="0 0 500 500" enable-background="new 0 0 500 500" xml:space="preserve">
<g>
	<defs>
		<rect id="SVGID_1_" x="132.999" y="41.774" width="241" height="421.068"/>
	</defs>
	<clipPath id="SVGID_2_">
		<use xlink:href="#SVGID_1_"  overflow="visible"/>
	</clipPath>
	<g clip-path="url(#SVGID_2_)">
		<defs>
			<rect id="SVGID_3_" x="132.999" y="41.774" width="241" height="421.068"/>
		</defs>
		<clipPath id="SVGID_4_">
			<use xlink:href="#SVGID_3_"  overflow="visible"/>
		</clipPath>
		<g opacity="0.35" clip-path="url(#SVGID_4_)">
		</g>
	</g>
</g>
<g>
	<path fill="#FFFFFF" d="M260.979,389.983h1.825c31.701,0,63.401,0.001,95.102-0.002c0.52,0,1.047,0.012,1.557-0.068
		c4.473-0.702,4.707-0.989,4.706-5.527c-0.001-26.865,0-53.728,0-80.591v-2.352c-1.047-0.465-1.814-0.842-2.608-1.151
		c-2.698-1.046-5.815-2.005-8.175-0.375c-3.226,2.227-6.304,5.031-8.553,8.217c-2.66,3.772-6.243,6.441-9.406,9.595
		c-2.659,2.651-5.644,4.973-8.473,7.429c0.358,0.697,0.536,1.011,0.687,1.338c1.663,3.6-0.586,9.483-4.411,10.013
		c-3.366,0.466-7.109-0.017-9.418-3.273c-1.407-1.983-2.526-4.174-3.733-6.294c-0.96-1.685-1.71-3.43-4.246-3.204
		c-2.346,0.209-3.292,1.434-3.914,3.548c-0.37,1.252-1.505,2.276-2.284,3.41c-1.079,1.57-2.393,3.037-3.156,4.748
		c-0.91,2.046,0.245,3.606,2.513,3.807c1.18,0.104,2.376,0.033,3.566,0.039c3.932,0.02,8.058,3.108,7.815,6.214
		c-0.338,4.34-1.539,7.442-6.38,8.159c-4.079,0.604-8.269,0.465-12.411,0.619c-2.713,0.1-4.594-1.204-6.108-3.418
		c-0.892-1.304-2.228-2.305-3.36-3.447c-1.172-1.183-2.315-2.394-3.517-3.546c-0.681-0.653-1.388-1.608-2.197-1.741
		c-2.48-0.41-5.017-0.463-7.528-0.703c-3.856-0.37-6.852,1.824-7.473,5.676c-0.282,1.754-0.387,3.553-0.4,5.334
		c-0.047,6.101-0.019,12.204-0.019,18.305C260.978,377.057,260.979,383.372,260.979,389.983 M364.168,184.344h-0.673
		c0-9.451,0.093-18.903-0.019-28.353c-0.267-22.772-0.619-45.543-0.964-68.314c-0.06-3.945-1.248-5.019-5.256-5.019
		c-29.848-0.002-59.696-0.015-89.543,0.018c-3.428,0.003-6.105,1.811-7.979,4.493c-2.073,2.969,1.211,9.327,4.827,9.413
		c2.932,0.071,5.877-0.244,8.81-0.467c1.666-0.127,3.328-0.334,4.521,1.162c1.231,1.543,0.662,3.117,0.24,4.847
		c-0.352,1.446-0.407,4.076,0.305,4.445c1.632,0.846,3.864,0.964,5.748,0.681c0.773-0.116,1.302-2.016,1.894-3.13
		c0.506-0.952,0.724-2.177,1.459-2.864c1.468-1.376,5.103-1.241,6.994-0.191c3.276,1.819,3.161,4.693,2.639,7.77
		c-0.399,2.348-1.69,3.532-4.193,4.277c-0.913,0.272-2.014,1.072-2.352,1.907c-1.262,3.104-3.43,4.635-6.721,4.402
		c-2.209-0.156-4.392-0.674-6.601-0.831c-1.411-0.1-3.251-0.359-4.19,0.369c-2.042,1.58-1.297,5.825,1.101,6.821
		c2.533,1.051,4.048,2.86,5.136,5.233c0.839,1.831,2.269,2.262,4.237,1.929c5.248-0.89,10.517-1.664,15.791-2.387
		c1.598-0.219,3.579-0.032,3.744,1.869c0.13,1.5-0.422,3.68-1.491,4.543c-2.859,2.31-6.106,4.165-9.3,6.026
		c-2.637,1.538-3.938,3.766-3.304,6.784c0.3,1.429,1.109,2.746,1.49,4.166c0.787,2.924,2.626,3.043,5.442,2.501
		c2.406-0.464,4.805-0.978,7.227-1.339c1.814-0.27,3.177,0.573,4.039,2.179c0.492,0.916,1.018,1.828,1.374,2.798
		c0.538,1.472,1.314,2.08,3.013,1.758c2.156-0.409,4.378-0.582,6.576-0.613c1.547-0.022,2.324,1.254,2.108,2.591
		c-0.141,0.878-0.987,1.805-1.764,2.373c-0.741,0.541-1.8,0.645-2.722,0.938c-2.08,0.663-3.064,2.596-2.489,4.894
		c0.551,2.206,1.369,2.677,4.012,2.313c3.078-0.422,3.411-0.764,3.596-3.694c0.201-3.164,1.014-3.746,4.263-3.583
		c2.111,0.106,4.241-0.085,6.358-0.218c2.743-0.171,5.481-0.543,8.225-0.59c1.948-0.032,3.943,0.27,4.643,2.624
		c0.636,2.139-0.096,3.632-2.353,5.248c-1.611,1.154-3.032,2.599-4.716,3.623c-1.348,0.82-2.925,1.371-4.472,1.724
		c-1.203,0.274-2.528,0.157-3.782,0.038c-1.582-0.148-2.193,0.607-2.196,2.034c-0.002,1.625-0.072,3.266,0.13,4.869
		c0.21,1.659-0.122,2.896-1.62,3.791c-1.652,0.988-3.36,1.942-4.816,3.178c-0.622,0.528-0.975,1.755-0.908,2.624
		c0.102,1.354,6.659,6.936,8.025,7.071c0.508,0.05,1.033-0.084,1.552-0.115c3.19-0.19,6.381-0.521,9.571-0.51
		c2.06,0.008,4.101,0.392,5.5,2.368c2.419,3.419,0.449,10.589-5.29,10.495c-2.9-0.048-5.805,0.046-8.702-0.053
		c-1.371-0.046-2.153,0.352-2.776,1.642c-0.526,1.09-1.33,2.368-2.347,2.843c-4.839,2.259-7.347,6.849-10.838,10.441
		c-1.188,1.223-0.529,3.331,1.069,3.959c4.921,1.937,9.913,0.013,12.156-4.686c0.161-0.336,0.302-0.681,0.466-1.014
		c1.138-2.316,2.103-2.656,4.374-1.545c2.047,1.001,4.004,0.431,5.179-1.527c0.305-0.51,0.525-1.07,0.837-1.576
		c1.269-2.07,3.367-3.134,4.982-2.417c2.114,0.938,2.077,2.87,1.999,4.771c-0.013,0.294-0.117,0.584-0.149,0.88
		c-0.434,3.991-0.983,7.973-1.254,11.975c-0.214,3.17,1.265,5.051,4.308,5.827c1.857,0.474,3.276,1.38,3.236,3.392
		c-0.04,1.988-1.302,3.512-3.243,3.712c-1.751,0.182-3.633-0.131-5.355-0.602c-2.837-0.774-4.131,0-4.228,2.917
		c-0.051,1.562-0.098,3.125-0.134,4.686c-0.058,2.591,1.43,4.372,4.035,4.177c2.537-0.188,5.07-0.806,7.532-1.493
		c1.751-0.488,3.386-1.408,4.838,0.471c1.66,2.145,1.488,5.307-0.379,7.289c-0.509,0.539-0.998,1.098-1.473,1.668
		c-2.672,3.202-5.703,5.379-10.232,4.165c-1.881-0.504-2.769,0.36-2.847,2.318c-0.059,1.487-0.007,2.983-0.15,4.462
		c-0.28,2.906-1.98,4.616-4.873,4.879c-1.849,0.167-3.718,0.118-5.572,0.246c-2.147,0.147-4.32,0.213-6.422,0.618
		c-2.978,0.574-4.185,2.304-3.988,5.172c0.301,4.375,1.944,6.709,5.132,6.743c3.489,0.037,7.015-0.023,10.456-0.522
		c1.334-0.193,3.026-1.445,3.604-2.665c1.586-3.349,3.651-4.581,7.266-3.543c2.133,0.611,4.261-0.392,4.707-2.486
		c0.515-2.418,2.16-3.282,4.283-3.53c1.47-0.172,2.973-0.087,4.46-0.089c3.042-0.002,5.164-2.075,5.164-5.12
		C364.169,249.246,364.168,216.795,364.168,184.344 M183.455,209.757c-0.193-1.49-0.415-2.654-0.484-3.828
		c-0.183-3.098-0.185-3.282-3.386-3.09c-3.543,0.212-7.058,0.935-10.602,1.129c-4.045,0.221-5.854-2.483-4.45-6.272
		c1.534-4.138,1.535-4.141-2.157-6.637c-0.492-0.333-1.152-0.51-1.501-0.946c-0.768-0.961-1.753-1.958-2.006-3.086
		c-1.353-6.031,1.66-9.337,7.742-8.705c0.148,0.015,0.294,0.052,0.442,0.061c3.827,0.25,7.651,0.619,11.481,0.712
		c3.867,0.095,7.762-0.334,11.601-0.021c1.614,0.132,3.978,1.22,4.516,2.498c1.659,3.942,4.276,4.926,8.157,4.228
		c2.208-0.397,3.663,0.52,4.087,2.954c0.323,1.853,1.787,2.774,3.566,2.738c1.842-0.037,3.728-0.245,5.497-0.735
		c1.095-0.302,2.343-1.052,2.942-1.976c2.482-3.832,1.663-6.845-2.319-9.031c-1.64-0.9-2.828-1.97-3.4-3.874
		c-0.574-1.907-1.987-3.155-4.174-2.966c-2.211,0.191-4.429,0.401-6.618,0.766c-3.454,0.576-6.535,0.251-8.731-2.898
		c-0.764-1.096-1.569-2.166-2.394-3.216c-2.772-3.524-2.692-7.826-2.955-11.912c-0.258-4.005,1.83-5.774,5.807-6.065
		c3.087-0.226,4.931,1.307,6.576,3.712c0.897,1.312,2.315,2.675,3.766,3.101c1.927,0.565,4.141,0.464,6.186,0.236
		c2.432-0.273,4.065-2.381,3.885-4.437c-0.163-1.867-1.825-3.227-4.348-3.365c-1.311-0.072-2.654,0.004-3.951,0.213
		c-2.858,0.46-4.474-0.271-5.779-2.758c-0.199-0.38-0.522-0.705-0.83-1.014c-1.462-1.471-2.879-2.995-4.428-4.372
		c-1.421-1.263-2.894-2.524-4.52-3.488c-1.559-0.923-2.715-1.922-2.344-3.844c0.36-1.863,1.662-2.546,3.503-2.856
		c0.921-0.155,2.168-1.106,2.423-1.951c0.755-2.51,2.531-4.432,4.521-4.25c2.444,0.222,4.118,2.39,4.034,5.222
		c-0.071,2.42,1.488,3.394,3.794,2.587c1.439-0.504,2.993-0.783,4.517-0.912c1.848-0.157,3.741,0.113,5.569-0.133
		c0.806-0.107,1.57-0.962,2.232-1.603c0.979-0.948,1.713-2.204,2.806-2.964c1.198-0.833,2.673-1.284,4.052-1.84
		c1.434-0.579,1.61-1.542,1.082-2.864c-1.138-2.848-4.456-4.141-7.958-3.061c-3.158,0.975-3.587,0.795-5.24-2.191
		c-1.424-2.574-5.123-4.155-7.749-3.591c-2.153,0.463-4.379,0.746-6.58,0.795c-3.136,0.07-5.01-1.954-4.717-5.103
		c0.164-1.75,0.616-3.543,1.323-5.148c0.45-1.02,1.459-2.185,2.465-2.506c6.686-2.132,11.994-0.166,15.784,5.817
		c0.945,1.491,2.138,1.977,3.529,1.432c3.569-1.396,5.849,0.018,7.637,2.998c0.415,0.691,0.975,1.34,1.597,1.852
		c1.977,1.627,4.611,2.493,6.659,1.319c3.815-2.187,5.872-7.479,1.657-10.956c-2.884-2.378-5.322-4.91-6.38-8.736
		c-1.554,0.337-2.927,0.603-4.284,0.936c-4.15,1.016-6.869-0.772-6.997-4.979c-0.081-2.687,0.399-5.39,0.64-8.232h-2.567
		c-22.931,0-45.86-0.001-68.79,0.001c-7.236,0-6.061-0.486-6.063,6.049c-0.019,99.09-0.013,198.18-0.013,297.27
		c0,2.659,0.756,3.558,3.379,3.951c0.584,0.088,1.188,0.053,1.783,0.054c31.565,0.001,63.132,0.001,94.697,0.001h2.431
		c0-15.076,0.031-29.812-0.026-44.547c-0.012-3.017-1.258-4.321-4.144-4.98c-2.95-0.674-6.046,0.68-7.429,2.84
		c-0.736,1.148-1.949,2.106-3.142,2.822c-3.136,1.88-6.611,1.197-10.012,1.054c-8.239-0.346-16.477-0.674-24.719-0.918
		c-0.959-0.028-2.331,0.217-2.836,0.863c-2.477,3.171-6.03,5.547-7.014,9.896c-0.238,1.054-2.108,2.389-3.247,2.408
		c-1.137,0.018-2.347-1.396-3.419-2.304c-0.331-0.28-0.383-0.957-0.449-1.468c-0.201-1.549-0.896-2.579-2.5-3.03
		c-1.417-0.398-2.141-1.394-2.161-2.987c-0.027-2.374-0.238-4.746-0.38-7.12c-0.113-1.865-1.286-2.804-3.117-2.473
		c-0.434,0.079-0.842,0.396-1.268,0.408c-2.146,0.065-4.488,0.611-6.393-0.057c-2.125-0.745-2.469-3.57-1.864-6.037
		c0.524-2.137,0.795-4.373,0.85-6.573c0.039-1.581-0.52-3.092-2.496-3.476c-0.431-0.083-0.786-0.624-1.148-0.982
		c-2.48-2.444-5.047-4.812-7.371-7.399c-0.66-0.736-1.152-2.441-0.745-3.116c0.56-0.931,2.036-1.812,3.135-1.832
		c4.827-0.084,9.657,0.16,14.489,0.263c3.21,0.069,4.702,1.112,5.701,4.249c0.469,1.47,1.235,2.206,2.873,2.161
		c7.725-0.206,15.455-0.296,23.179-0.516c2.808-0.081,4.297-1.179,4.515-3.921c0.163-2.042-0.432-4.21-1.044-6.213
		c-0.211-0.688-1.465-1.413-2.298-1.487c-2.203-0.198-4.438-0.063-6.66-0.032c-2.442,0.033-3.497-0.769-3.607-3.187
		c-0.062-1.378,0.259-2.784,0.496-4.162c0.527-3.047-1.522-4.86-4.504-4.103c-1.706,0.433-3.493,0.767-5.245,0.766
		c-5.123-0.001-10.25-0.356-15.368-0.245c-2.578,0.055-4.06-1.238-4.693-3.231c-0.513-1.61-1.36-2.245-2.753-2.757
		c-4.287-1.577-5.481-5.261-3.037-9.158c2.167-3.455,1.377-6.088-2.417-8.042c-1.912-0.984-3.006-2.259-2.958-4.7
		c0.078-3.928-0.287-7.867-0.539-11.797c-0.163-2.544,1.275-4.186,3.82-4.061c0.795,0.039,1.6,0.302,2.362,0.57
		c2.812,0.987,3.553,0.57,5.373-1.768c3.43-4.406,3.091-5.533,9.033-3.859c0.215,0.06,0.479,0.224,0.64,0.154
		c0.959-0.418,2.538-0.726,2.704-1.377c0.347-1.368,0.535-3.591-0.252-4.287c-3.064-2.71-6.464-5.063-9.874-7.349
		c-2.741-1.837-3.944-4.394-3.241-7.878c0.501-2.488,2.261-3.883,5.608-4.202c1.995-0.191,4.013-0.175,6.021-0.196
		c1.116-0.012,1.601-0.403,1.533-1.605c-0.117-2.066-0.093-4.141-0.122-6.211c-0.029-2.109,1.073-3.343,3.231-3.381
		c1.324-0.023,2.65,0.279,3.978,0.327C179.841,209.803,181.527,209.757,183.455,209.757 M367.705,280.732
		c3.865-1.089,6.224-0.418,7.687,2.042c1.634,2.747,0.439,8.452-2.233,10.306c-1.158,0.803-2.366,1.653-3.681,2.077
		c-1.666,0.537-1.799,1.569-1.797,3.03c0.038,30.3,0.036,60.599,0.043,90.899c0.001,3.483-0.609,4.205-4.128,4.726
		c-0.879,0.131-1.777,0.18-2.667,0.18c-73.106,0.008-146.212,0.008-219.318,0.006c-3.674,0-5.002-1.368-5.003-5.136
		c-0.003-37.372-0.002-74.743-0.002-112.115V84.23c0-5.868,0.17-6.036,6.156-6.036c26.652,0,53.304,0.022,79.956-0.043
		c2.1-0.005,4.588-0.048,6.178-1.13c1.335-0.908,2.155-3.331,2.246-5.131c0.132-2.625-0.716-5.284-0.921-7.947
		c-0.205-2.678,0.645-3.574,3.271-3.608c2.048-0.026,3.397-0.939,4.211-2.725c0.824-1.809,0.492-3.319-0.842-4.905
		c-0.688-0.818-1.101-2.502-0.719-3.405c0.38-0.9,1.873-1.744,2.946-1.839c1.596-0.14,2.276-0.903,3.061-2.097
		c0.745-1.135,1.763-2.321,2.945-2.865c0.943-0.435,2.756-0.372,3.381,0.26c0.732,0.741,0.812,2.345,0.787,3.567
		c-0.043,2.019-0.586,4.033-0.56,6.046c0.021,1.611,1.265,2.354,2.818,1.92c1.47-0.41,2.117,0.355,2.56,1.453
		c1.237,3.061,1.469,6.211,0.485,9.381c-1.036,3.34-1.209,6.681-0.439,10.101c0.475,2.108,1.492,3.023,3.839,3.017
		c34.32-0.072,68.639-0.05,102.959-0.049c5.354,0,6.781,1.409,6.781,6.704c0.001,64.322,0.001,128.643,0.001,192.964V280.732z"/>
	<path fill="#FFFFFF" d="M154.258,425.942l-4.552-3.891l4.319-4.186l4.518,3.859L154.258,425.942z M149.642,418.162l-4.484-3.958
		l4.284-4.12l4.451,3.89L149.642,418.162z M145.289,426.073l-4.517-3.89l4.352-4.187l4.451,3.859L145.289,426.073z M156.665,443.483
		c-0.574,4.022-1.75,7.816-3.528,11.389c-1.78,3.573-4.167,6.973-7.155,10.205c-2.837-0.639-5.238-1.313-7.203-2.027
		c-1.969-0.715-3.525-1.522-4.667-2.423c4.484-2.131,8.215-4.359,11.194-6.676c2.978-2.32,5.247-4.798,6.807-7.436
		c-0.419-1.252-1.148-2.522-2.191-3.808c-1.043-1.287-2.424-2.61-4.14-3.971l4.649-8.871
		C153.421,433.647,155.497,438.185,156.665,443.483"/>
	<path fill="#FFFFFF" d="M170.999,446.515h-0.594c-2.33,0-4.309-0.712-5.937-2.144c-2.35-2.087-3.525-5.494-3.525-10.218
		c0-14.331-1.033-22.894-3.099-25.686l6.23-6.626c1.253,2.287,1.958,6.639,2.11,13.055v13.55c0,6.024,1.175,9.037,3.529,9.037h1.218
		c0.702,0,1.057,0.351,1.057,1.053v6.926C171.989,446.165,171.658,446.515,170.999,446.515"/>
	<path fill="#FFFFFF" d="M178.154,417.669l-5.409-5.045l5.605-4.849l5.44,4.98L178.154,417.669z M169.631,437.793
		c0.142-0.206,0.412-0.31,0.807-0.31h3.724c0.746,0,1.435-0.034,2.06-0.102c0.628-0.064,1.216-0.179,1.766-0.345
		c0.547-0.165,1.07-0.374,1.567-0.628c0.493-0.251,1.002-0.578,1.533-0.973c-0.132-0.482-0.341-1.036-0.628-1.664
		c-0.287-0.625-0.615-1.257-0.99-1.894c-0.374-0.638-0.773-1.253-1.202-1.848c-0.429-0.593-0.854-1.097-1.27-1.516l5.046-6.925
		c0.439,0.574,0.867,1.256,1.286,2.046c0.416,0.79,0.8,1.604,1.151,2.438c0.351,0.837,0.662,1.672,0.926,2.505
		c0.264,0.837,0.459,1.584,0.591,2.243c-0.088,0.574-0.256,1.364-0.51,2.373c-0.254,1.013-0.544,2.063-0.875,3.151
		c-0.328,1.088-0.679,2.127-1.053,3.117c-0.375,0.987-0.702,1.736-0.99,2.239c-1.385,1.715-2.83,2.948-4.336,3.694
		c-1.505,0.746-3.194,1.121-5.061,1.121h-2.803c-0.371,0-0.625-0.098-0.756-0.297c-0.132-0.196-0.2-0.449-0.2-0.756v-6.926
		C169.415,438.253,169.486,438.003,169.631,437.793"/>
	<path fill="#FFFFFF" d="M222.871,413.102l4.518-4.552l4.548,4.552l-4.548,4.514L222.871,413.102z M213.971,413.102l4.513-4.552
		l4.553,4.552l-4.553,4.514L213.971,413.102z M247.072,429.421c-0.638,2.789-2.256,6.108-4.849,9.955
		c-8,3.475-16.856,5.21-26.571,5.21c-10.903,0-16.353-3.89-16.353-11.67c0-1.959,0.355-4.022,1.071-6.2
		c0.712-2.175,1.763-4.494,3.147-6.956c0.135-0.044,0.249-0.078,0.348-0.098c0.098-0.023,0.203-0.033,0.314-0.033
		c0.726,0,1.306,0.374,1.746,1.121c-1.428,2.661-2.14,5.133-2.14,7.419c0,4.593,4.812,6.922,14.439,6.99
		c5.45,0.044,10.166-0.176,14.144-0.662c3.977-0.482,7.263-1.253,9.856-2.305c-0.439-1.452-0.966-2.759-1.58-3.924
		c-0.618-1.165-1.364-2.188-2.242-3.067l5.143-6.628c0.351,0.507,0.712,1.172,1.087,1.996c0.375,0.823,0.736,1.809,1.087,2.951
		c0.396,1.121,0.706,2.181,0.926,3.181C246.863,427.702,247.004,428.608,247.072,429.421"/>
	<path fill="#FFFFFF" d="M256.303,411.582c0,4.264-0.145,8.854-0.428,13.766c-0.287,4.914-0.716,10.225-1.287,15.942l-4.285,5.571
		c0.132-4.022,0.196-6.658,0.196-7.911c0-4.025-0.099-7.837-0.297-11.443c-0.196-3.604-0.517-7.054-0.956-10.35
		c-0.639-5.561-1.364-9.124-2.175-10.683l8.175-6.956c0.351,2.067,0.615,4.093,0.79,6.081
		C256.212,407.591,256.303,409.583,256.303,411.582"/>
	<path fill="#FFFFFF" d="M269.989,441.158c-0.574,4.022-1.749,7.817-3.528,11.39c-1.78,3.573-4.167,6.973-7.155,10.204
		c-2.837-0.638-5.237-1.313-7.203-2.026c-1.968-0.716-3.525-1.523-4.666-2.424c4.484-2.131,8.215-4.359,11.193-6.676
		c2.978-2.32,5.247-4.798,6.808-7.436c-0.419-1.252-1.148-2.522-2.191-3.808c-1.044-1.287-2.424-2.61-4.14-3.971l4.65-8.871
		C266.744,431.322,268.821,435.86,269.989,441.158"/>
	<path fill="#FFFFFF" d="M282.238,444.635h-0.594c-2.33,0-4.309-0.713-5.936-2.145c-2.35-2.087-3.525-5.493-3.525-10.217
		c0-14.331-1.033-22.894-3.1-25.687l6.231-6.625c1.253,2.286,1.958,6.639,2.11,13.054v13.55c0,6.024,1.175,9.036,3.529,9.036h1.218
		c0.702,0,1.057,0.35,1.057,1.054v6.925C283.227,444.283,282.896,444.635,282.238,444.635"/>
	<path fill="#FFFFFF" d="M308.35,419.38l-4.552-3.889l4.322-4.187l4.514,3.856L308.35,419.38z M303.734,411.601l-4.484-3.957
		l4.285-4.123l4.451,3.893L303.734,411.601z M299.381,419.512l-4.517-3.889l4.352-4.187l4.451,3.856L299.381,419.512z
		 M327.9,444.635h-0.56c-2.09,0-3.89-0.581-5.406-1.746c-0.945-0.682-1.695-1.523-2.242-2.522c-0.55-1.002-0.902-2.127-1.057-3.38
		h-0.132c-0.263,1.122-0.658,2.148-1.185,3.083c-0.53,0.932-1.151,1.743-1.864,2.421c-0.716,0.682-1.496,1.21-2.34,1.583
		c-0.847,0.375-1.709,0.561-2.59,0.561c-4.066,0-6.416-2.506-7.053-7.517h-0.132c-0.199,1.186-0.524,2.253-0.972,3.198
		c-0.453,0.946-1.04,1.759-1.767,2.438c-1.297,1.252-2.714,1.881-4.251,1.881c-4.221,0-6.628-2.526-7.219-7.585h-0.135
		c-0.327,2.243-1.229,4.123-2.701,5.64c-1.233,1.296-2.592,1.945-4.089,1.945h-0.595c-0.634,0-0.955-0.352-0.955-1.054v-6.925
		c0-0.703,0.341-1.054,1.023-1.054h1.253c1.033,0,2.111-0.75,3.232-2.242c0.614-0.902,1.07-1.854,1.368-2.854
		c0.298-0.999,0.466-2.103,0.51-3.312c0.462-0.131,0.935-0.199,1.418-0.199c0.418,0,0.946,0.132,1.583,0.395
		c-0.044,0.311-0.068,0.622-0.068,0.943v1.138c0,4.085,1.651,6.132,4.947,6.132c0.99,0,1.884-0.2,2.688-0.594
		c0.801-0.395,1.493-0.956,2.076-1.682c0.582-0.726,1.033-1.604,1.351-2.637c0.318-1.033,0.489-2.198,0.51-3.495
		c0.463-0.131,0.935-0.199,1.418-0.199c0.463,0,0.979,0.132,1.55,0.395c-0.045,0.311-0.064,0.622-0.064,0.943v1.138
		c0,4.085,1.691,6.132,5.074,6.132c2.067,0,3.704-0.726,4.913-2.178c1.208-1.448,1.837-3.526,1.881-6.231
		c0.483-0.131,0.955-0.199,1.419-0.199c0.307,0,0.587,0.031,0.84,0.084c0.25,0.054,0.496,0.136,0.74,0.247
		c-0.045,0.307-0.065,0.632-0.065,0.973v1.171c0,1.931,0.577,3.438,1.729,4.515c1.155,1.076,2.698,1.617,4.632,1.617h1.219
		c0.705,0,1.057,0.35,1.057,1.054v6.925C328.89,444.283,328.559,444.635,327.9,444.635"/>
	<path fill="#FFFFFF" d="M336.045,417.534l4.517-4.549l4.548,4.549l-4.548,4.517L336.045,417.534z M327.144,417.534l4.518-4.549
		l4.548,4.549l-4.548,4.517L327.144,417.534z M345.938,444.635h-0.594c-5.034,0-7.915-2.823-8.638-8.473h-0.101
		c-0.923,5.65-3.846,8.473-8.77,8.473h-0.594c-0.635,0-0.955-0.352-0.955-1.054v-6.925c0-0.703,0.341-1.054,1.024-1.054h1.185
		c4.22,0,6.594-2.759,7.121-8.277c0.156-0.111,0.314-0.192,0.479-0.247c0.166-0.053,0.369-0.084,0.611-0.084
		c0.263,0,0.511,0.031,0.74,0.084c0.233,0.054,0.469,0.136,0.709,0.247c0,5.517,2.155,8.277,6.463,8.277h1.253
		c0.682,0,1.023,0.35,1.023,1.054v6.925C346.894,444.283,346.573,444.635,345.938,444.635"/>
	<path fill="#FFFFFF" d="M353.026,415.788l-5.409-5.044l5.605-4.85l5.44,4.981L353.026,415.788z M344.504,435.913
		c0.142-0.206,0.411-0.311,0.806-0.311h3.724c0.746,0,1.435-0.034,2.06-0.101c0.628-0.064,1.216-0.179,1.767-0.344
		c0.547-0.166,1.07-0.376,1.567-0.628c0.493-0.251,1.002-0.578,1.533-0.974c-0.132-0.482-0.342-1.036-0.628-1.664
		c-0.287-0.625-0.615-1.256-0.989-1.894c-0.375-0.639-0.774-1.253-1.203-1.847c-0.429-0.595-0.854-1.097-1.269-1.516l5.045-6.926
		c0.439,0.575,0.868,1.256,1.287,2.047c0.415,0.79,0.799,1.604,1.151,2.438c0.352,0.838,0.662,1.672,0.926,2.506
		c0.264,0.837,0.46,1.583,0.59,2.242c-0.088,0.574-0.256,1.364-0.51,2.374c-0.254,1.013-0.543,2.063-0.875,3.151
		c-0.327,1.087-0.679,2.127-1.053,3.116c-0.374,0.986-0.702,1.736-0.989,2.239c-1.385,1.714-2.831,2.947-4.336,3.693
		c-1.506,0.746-3.195,1.122-5.062,1.122h-2.803c-0.371,0-0.625-0.099-0.756-0.298c-0.132-0.196-0.199-0.448-0.199-0.756v-6.925
		C344.287,436.372,344.358,436.122,344.504,435.913"/>
	<path fill="#FFFFFF" d="M369.413,414.351c0,4.265-0.145,8.854-0.429,13.767c-0.288,4.914-0.716,10.225-1.286,15.942l-4.285,5.571
		c0.132-4.021,0.196-6.659,0.196-7.912c0-4.024-0.098-7.837-0.298-11.443c-0.196-3.603-0.516-7.054-0.956-10.35
		c-0.638-5.561-1.364-9.123-2.174-10.684l8.175-6.956c0.351,2.067,0.614,4.092,0.79,6.081
		C369.322,410.36,369.413,412.352,369.413,414.351"/>
</g>
</svg>
