<svg class="lds-spinner" width="200px"  height="200px"  xmlns="http://www.w3.org/2000/svg" xmlns:xlink="http://www.w3.org/1999/xlink" viewBox="0 0 100 100" preserveAspectRatio="xMidYMid" style="background: none;"><g transform="rotate(0 50 50)">
  <rect x="47" y="19" rx="9.4" ry="3.8000000000000003" width="6" height="12" fill="#c2af1c">
    <animate attributeName="opacity" values="1;0" keyTimes="0;1" dur="3.6s" begin="-3.3000000000000003s" repeatCount="indefinite"></animate>
  </rect>
</g><g transform="rotate(30 50 50)">
  <rect x="47" y="19" rx="9.4" ry="3.8000000000000003" width="6" height="12" fill="#c2af1c">
    <animate attributeName="opacity" values="1;0" keyTimes="0;1" dur="3.6s" begin="-3s" repeatCount="indefinite"></animate>
  </rect>
</g><g transform="rotate(60 50 50)">
  <rect x="47" y="19" rx="9.4" ry="3.8000000000000003" width="6" height="12" fill="#c2af1c">
    <animate attributeName="opacity" values="1;0" keyTimes="0;1" dur="3.6s" begin="-2.6999999999999997s" repeatCount="indefinite"></animate>
  </rect>
</g><g transform="rotate(90 50 50)">
  <rect x="47" y="19" rx="9.4" ry="3.8000000000000003" width="6" height="12" fill="#c2af1c">
    <animate attributeName="opacity" values="1;0" keyTimes="0;1" dur="3.6s" begin="-2.4s" repeatCount="indefinite"></animate>
  </rect>
</g><g transform="rotate(120 50 50)">
  <rect x="47" y="19" rx="9.4" ry="3.8000000000000003" width="6" height="12" fill="#c2af1c">
    <animate attributeName="opacity" values="1;0" keyTimes="0;1" dur="3.6s" begin="-2.1s" repeatCount="indefinite"></animate>
  </rect>
</g><g transform="rotate(150 50 50)">
  <rect x="47" y="19" rx="9.4" ry="3.8000000000000003" width="6" height="12" fill="#c2af1c">
    <animate attributeName="opacity" values="1;0" keyTimes="0;1" dur="3.6s" begin="-1.8s" repeatCount="indefinite"></animate>
  </rect>
</g><g transform="rotate(180 50 50)">
  <rect x="47" y="19" rx="9.4" ry="3.8000000000000003" width="6" height="12" fill="#c2af1c">
    <animate attributeName="opacity" values="1;0" keyTimes="0;1" dur="3.6s" begin="-1.5s" repeatCount="indefinite"></animate>
  </rect>
</g><g transform="rotate(210 50 50)">
  <rect x="47" y="19" rx="9.4" ry="3.8000000000000003" width="6" height="12" fill="#c2af1c">
    <animate attributeName="opacity" values="1;0" keyTimes="0;1" dur="3.6s" begin="-1.2s" repeatCount="indefinite"></animate>
  </rect>
</g><g transform="rotate(240 50 50)">
  <rect x="47" y="19" rx="9.4" ry="3.8000000000000003" width="6" height="12" fill="#c2af1c">
    <animate attributeName="opacity" values="1;0" keyTimes="0;1" dur="3.6s" begin="-0.9s" repeatCount="indefinite"></animate>
  </rect>
</g><g transform="rotate(270 50 50)">
  <rect x="47" y="19" rx="9.4" ry="3.8000000000000003" width="6" height="12" fill="#c2af1c">
    <animate attributeName="opacity" values="1;0" keyTimes="0;1" dur="3.6s" begin="-0.6s" repeatCount="indefinite"></animate>
  </rect>
</g><g transform="rotate(300 50 50)">
  <rect x="47" y="19" rx="9.4" ry="3.8000000000000003" width="6" height="12" fill="#c2af1c">
    <animate attributeName="opacity" values="1;0" keyTimes="0;1" dur="3.6s" begin="-0.3s" repeatCount="indefinite"></animate>
  </rect>
</g><g transform="rotate(330 50 50)">
  <rect x="47" y="19" rx="9.4" ry="3.8000000000000003" width="6" height="12" fill="#c2af1c">
    <animate attributeName="opacity" values="1;0" keyTimes="0;1" dur="3.6s" begin="0s" repeatCount="indefinite"></animate>
  </rect>
</g></svg>